<svg width="100" height="100" viewBox="0 0 100 100" fill="none" xmlns="http://www.w3.org/2000/svg">
<path d="M0 0H100V100H0V0Z" fill="#E64415"/>
<path d="M49.9996 66.6477C42.0526 66.6477 36.4515 64.9961 33.1962 61.6689C30.4794 58.8923 29.127 54.8949 29.127 49.6528H42.8186C42.8186 51.9268 43.2016 53.71 43.9676 55.0146C45.0447 56.9295 47.0554 57.8869 49.9996 57.8869C52.9677 57.8869 54.9903 56.9295 56.0794 55.0146C56.8454 53.6741 57.2284 51.8909 57.2284 49.6528V33.3281H70.92V49.8443C70.92 54.9547 69.5556 58.8923 66.8508 61.6689C63.5955 64.9961 57.9704 66.6477 49.9996 66.6477Z" fill="white"/>
</svg>
