<svg width="500" height="146" viewBox="0 0 500 146" fill="none" xmlns="http://www.w3.org/2000/svg">
<rect width="500" height="145.359" fill="white"/>
<path d="M0 0V145.359H500V0H0ZM487.972 133.365H11.7754V11.7586H487.972V133.365Z" fill="#E64415"/>
<path d="M85.9274 94.9574C74.7576 94.9574 66.8849 92.636 62.3093 87.9594C58.4907 84.0567 56.5898 78.4382 56.5898 71.0702H75.8342C75.8342 74.2664 76.3725 76.7728 77.4491 78.6064C78.9631 81.2979 81.7892 82.6437 85.9274 82.6437C90.0992 82.6437 92.9421 81.2979 94.4729 78.6064C95.5495 76.7224 96.0878 74.2159 96.0878 71.0702V48.125H115.332V71.3393C115.332 78.5223 113.414 84.0567 109.613 87.9594C105.037 92.636 97.1308 94.9574 85.9274 94.9574Z" fill="#E64415"/>
<path d="M152.853 94.9574C141.683 94.9574 133.811 92.636 129.235 87.9594C125.417 84.0567 123.516 78.4382 123.516 71.0702V48.125H142.76V71.0702C142.76 74.2664 143.298 76.7728 144.375 78.6064C145.939 81.2979 148.765 82.6437 152.853 82.6437C157.025 82.6437 159.868 81.2979 161.399 78.6064C162.475 76.7224 163.014 74.2159 163.014 71.0702V48.125H182.258V71.3393C182.258 78.5223 180.34 84.0567 176.539 87.9594C171.963 92.636 164.057 94.9574 152.853 94.9574Z" fill="#E64415"/>
<path d="M260.706 93.9529H237.828L211.922 62.9331V93.9529H192.678V48.0625H215.556L241.461 78.9477V48.0625H260.706V93.9529Z" fill="#E64415"/>
<path d="M348.676 93.9529H323.712L303.997 78.6112L292.625 86.3493V93.9529H273.381V48.0625H292.625V69.3255L323.51 48.0625H348.676L315.84 70.5367L348.676 93.9529Z" fill="#E64415"/>
<path d="M375.936 93.9529H356.691V48.0625H375.936V93.9529Z" fill="#E64415"/>
<path d="M443.818 93.9529H388.574V48.0625H441.261V59.4342H407.819V66.634H436.079V75.4487H407.819V82.5812H443.818V93.9529Z" fill="#E64415"/>
</svg>
